<svg width="39" height="41" viewBox="0 0 39 41" fill="none" xmlns="http://www.w3.org/2000/svg">
<path d="M37.0323 4.57947H32.2389V10.49C32.2389 11.8127 31.0517 12.8901 29.591 12.8901H27.7844C26.3238 12.8901 25.1365 11.8151 25.1365 10.49V4.57947H13.3389V10.49C13.3389 11.8127 12.1493 12.8901 10.691 12.8901H8.88208C7.4214 12.8901 6.23416 11.8151 6.23416 10.49V4.57947H1.43846C0.641514 4.57947 -0.00585938 5.22684 -0.00585938 6.02379V39.2127C-0.00585938 40.0074 0.641514 40.6594 1.43846 40.6594H37.0323C37.8316 40.6594 38.4789 40.0074 38.4789 39.2127V6.02379C38.4813 5.22684 37.8316 4.57947 37.0323 4.57947ZM36.5275 38.6285C36.5275 38.8739 36.3218 39.0795 36.0717 39.0795H2.40368C2.15361 39.0795 1.94794 38.8739 1.94794 38.6285V18.1696C1.94794 17.9196 2.15127 17.7139 2.40368 17.7139H36.0694C36.3195 17.7139 36.5251 17.9196 36.5251 18.1696L36.5275 38.6285Z" fill="white"/>
<path d="M8.88172 10.5226H10.6883C11.352 10.5226 11.8919 10.0949 11.8919 9.56908V1.84501C11.8919 1.31683 11.352 0.891479 10.6883 0.891479H8.88172C8.21565 0.891479 7.67578 1.31683 7.67578 1.84501V9.57142C7.67578 10.0949 8.21565 10.5226 8.88172 10.5226Z" fill="white"/>
<path d="M27.7841 10.5226H29.5906C30.2567 10.5226 30.7966 10.0949 30.7966 9.56908V1.84501C30.7966 1.31683 30.259 0.891479 29.5906 0.891479H27.7841C27.118 0.891479 26.5781 1.31683 26.5781 1.84501V9.57142C26.5828 10.0949 27.118 10.5226 27.7841 10.5226Z" fill="white"/>
<path d="M27.5089 20.5371C27.1933 20.2239 26.6862 20.2239 26.373 20.5371L16.9546 29.9602L12.1028 25.071C11.7896 24.7602 11.2848 24.7602 10.9716 25.071L9.27023 26.7701C8.9594 27.0809 8.9594 27.5927 9.27023 27.9012L16.382 35.0621C16.6928 35.3729 17.2023 35.3729 17.5155 35.0621L29.2079 23.3673C29.5234 23.0564 29.5234 22.5446 29.2079 22.2314L27.5089 20.5371Z" fill="white"/>
</svg>
