<svg width="20" height="20" viewBox="0 0 20 20" fill="none" xmlns="http://www.w3.org/2000/svg">
<g clip-path="url(#clip0_21_2)">
<path d="M19.1439 0.763907C18.9604 0.644759 18.7551 0.562948 18.5399 0.523146C18.3247 0.483344 18.1038 0.486331 17.8897 0.531938C17.6756 0.577545 17.4727 0.664877 17.2924 0.788945C17.1121 0.913013 16.958 1.07139 16.8389 1.25502L7.50005 15.65L2.94561 11.4389C2.78492 11.2903 2.59654 11.1749 2.39123 11.0991C2.18592 11.0233 1.96769 10.9887 1.74901 10.9973C1.30736 11.0146 0.890671 11.2066 0.590608 11.5311C0.290545 11.8557 0.131688 12.2861 0.148983 12.7277C0.166278 13.1694 0.358308 13.5861 0.68283 13.8861L6.66283 19.415C6.66283 19.415 6.8345 19.5628 6.91394 19.6145C7.09754 19.7337 7.30284 19.8156 7.51811 19.8554C7.73337 19.8953 7.95438 19.8923 8.1685 19.8467C8.38261 19.8011 8.58564 19.7137 8.76598 19.5896C8.94632 19.4655 9.10043 19.3071 9.2195 19.1234L19.6351 3.06891C19.7542 2.88533 19.836 2.68007 19.8758 2.46486C19.9156 2.24966 19.9126 2.02872 19.867 1.81466C19.8214 1.60061 19.7341 1.39764 19.61 1.21735C19.4859 1.03706 19.3276 0.882977 19.1439 0.763907Z" fill="white"/>
</g>
<defs>
<clipPath id="clip0_21_2">
<rect width="20" height="20" fill="white"/>
</clipPath>
</defs>
</svg>
