<svg width="31" height="39" viewBox="0 0 31 39" fill="none" xmlns="http://www.w3.org/2000/svg">
<path d="M15.8836 0.947754C7.65046 0.947754 0.970703 7.62751 0.970703 15.8607C0.99012 17.6277 1.31052 19.3753 1.93189 21.0259L1.89305 21.0162C3.47561 25.958 11.2913 33.6475 15.8739 38.2398H15.8836V38.2301C19.6313 34.4825 25.5246 28.4726 28.4276 23.9288C29.0781 22.8997 29.5927 21.9191 29.884 21.0162L29.8354 21.0259C30.4568 19.3753 30.7869 17.6277 30.7966 15.8607C30.7966 7.62751 24.1265 0.947754 15.8836 0.947754ZM15.8836 10.1227C19.0488 10.1227 21.6216 12.6956 21.6216 15.8607C21.6216 19.0258 19.0488 21.5987 15.8836 21.5987C12.7185 21.589 10.1554 19.0258 10.1554 15.8607C10.1457 12.6956 12.7185 10.1324 15.8836 10.1227Z" fill="white"/>
</svg>
