<svg width="39" height="39" viewBox="0 0 39 39" fill="none" xmlns="http://www.w3.org/2000/svg">
<path d="M23.9374 8.70464C25.5559 9.0204 27.0433 9.81193 28.2092 10.9779C29.3752 12.1439 30.1668 13.6313 30.4825 15.2498M23.9374 2.07666C27.2999 2.45021 30.4355 3.95598 32.8292 6.34675C35.223 8.73751 36.7327 11.8712 37.1105 15.2332M35.4535 28.456V33.427C35.4554 33.8885 35.3609 34.3452 35.176 34.7681C34.9911 35.1909 34.72 35.5705 34.3799 35.8824C34.0399 36.1944 33.6384 36.4319 33.2012 36.5798C32.7641 36.7276 32.3009 36.7825 31.8413 36.741C26.7424 36.1869 21.8446 34.4446 17.5414 31.654C13.5378 29.11 10.1435 25.7156 7.59945 21.712C4.79909 17.3893 3.05637 12.4677 2.51247 7.3459C2.47107 6.88769 2.52552 6.42587 2.67237 5.98986C2.81923 5.55384 3.05526 5.15318 3.36544 4.81339C3.67562 4.47359 4.05315 4.2021 4.47401 4.01621C4.89486 3.83031 5.34981 3.73409 5.80989 3.73365H10.7809C11.585 3.72574 12.3646 4.0105 12.9743 4.53486C13.5841 5.05923 13.9823 5.78741 14.0949 6.58368C14.3047 8.17451 14.6938 9.73649 15.2548 11.2398C15.4777 11.8329 15.5259 12.4775 15.3938 13.0971C15.2616 13.7168 14.9546 14.2856 14.5091 14.7361L12.4047 16.8405C14.7636 20.9888 18.1983 24.4236 22.3467 26.7824L24.4511 24.6781C24.9016 24.2326 25.4704 23.9255 26.09 23.7934C26.7097 23.6612 27.3543 23.7095 27.9473 23.9324C29.4507 24.4934 31.0127 24.8825 32.6035 25.0923C33.4084 25.2059 34.1435 25.6113 34.669 26.2315C35.1945 26.8517 35.4737 27.6434 35.4535 28.456Z" stroke="white" stroke-width="3.31399" stroke-linecap="round" stroke-linejoin="round"/>
</svg>
